<svg width="56" height="38" viewBox="0 0 56 38" fill="none" xmlns="http://www.w3.org/2000/svg">
<g clip-path="url(#clip0_3_6)">
<path d="M28.424 2.06496L29.4649 4.87779L29.5792 5.18682L29.8883 5.30117L32.7011 6.342L29.8883 7.38284L29.5792 7.49723L29.4649 7.80622L28.424 10.6191L27.3832 7.80622L27.2689 7.49723L26.9598 7.38284L24.147 6.342L26.9598 5.30117L27.2689 5.18682L27.3832 4.87779L28.424 2.06496Z" stroke="#1CC8EE" stroke-width="2.45698" stroke-linecap="round"/>
<path d="M52.6728 12.183C49.0786 8.78127 42.2109 6.53491 37.2689 10.1933C32.5835 14.1727 30.7911 19.9109 33.9636 25.4059" stroke="#6748BF" stroke-width="2.45698" stroke-linecap="round"/>
<path d="M47.7643 22.1657C45.2762 22.1657 43.2591 20.0892 43.2591 17.5279" stroke="#6748BF" stroke-width="2.45698" stroke-linecap="round"/>
<path d="M52.6699 12.1501L55.055 9.44469V18.7202" stroke="#6748BF" stroke-width="2.45698" stroke-linecap="round"/>
<path d="M47.7669 22.1728V25.3813L51.9862 28.5256L55.0548 26.2796V18.3226" stroke="#6748BF" stroke-width="2.45698" stroke-linecap="round"/>
<path d="M50.7419 16.5239L51.7215 17.5034" stroke="#1CC8EE" stroke-width="2.45698" stroke-linecap="round"/>
<path d="M1.16666 3.50769L34.1388 36.4798" stroke="#1CC8EE" stroke-width="2.45698" stroke-linecap="round"/>
<path d="M14.497 6.31353L36.9461 28.7626" stroke="#5F2EEA" stroke-width="2.45698" stroke-linecap="round"/>
<path d="M7.48309 19.6431L22.2153 34.3753" stroke="#5F2EEA" stroke-width="2.45698" stroke-linecap="round"/>
</g>
<defs>
<clipPath id="clip0_3_6">
<rect width="56" height="37.3333" fill="white"/>
</clipPath>
</defs>
</svg>
